<svg xmlns="http://www.w3.org/2000/svg" viewBox="0 0 180 180">
  <defs>
    <linearGradient id="bg" x1="0" y1="0" x2="1" y2="1">
      <stop offset="0%" stop-color="#1e3a8a"/>
      <stop offset="50%" stop-color="#2563eb"/>
      <stop offset="100%" stop-color="#dc2626"/>
    </linearGradient>
    <linearGradient id="paper" x1="0" y1="0" x2="0" y2="1">
      <stop offset="0%" stop-color="#ffffff"/>
      <stop offset="100%" stop-color="#f1f5f9"/>
    </linearGradient>
    <filter id="shadow" x="-20%" y="-20%" width="140%" height="140%">
      <feGaussianBlur stdDeviation="2.5"/>
      <feOffset dx="0" dy="2"/>
      <feComponentTransfer><feFuncA type="linear" slope="0.35"/></feComponentTransfer>
      <feMerge><feMergeNode/><feMergeNode in="SourceGraphic"/></feMerge>
    </filter>
  </defs>
  
  <rect width="180" height="180" rx="40" ry="40" fill="url(#bg)"/>
  <circle cx="60" cy="50" r="55" fill="rgba(255,255,255,0.12)"/>
  
  <g transform="translate(90 92) rotate(-3) translate(-44 -54)" filter="url(#shadow)">
    <rect x="0" y="0" width="88" height="108" rx="6" ry="6" fill="url(#paper)"/>
    <rect x="10" y="12" width="42" height="6" rx="2" fill="#0f172a"/>
    <rect x="10" y="22" width="68" height="3" rx="1.5" fill="#94a3b8"/>
    <rect x="10" y="28" width="58" height="3" rx="1.5" fill="#94a3b8"/>
    <rect x="10" y="42" width="68" height="40" rx="3" fill="#f8fafc" stroke="#e2e8f0" stroke-width="0.7"/>
    <line x1="10" y1="62" x2="78" y2="62" stroke="#cbd5e1" stroke-width="0.5" stroke-dasharray="2,2"/>
    <rect x="16" y="68" width="6" height="14" fill="#2563eb" rx="1"/>
    <rect x="26" y="60" width="6" height="22" fill="#2563eb" rx="1"/>
    <rect x="36" y="52" width="6" height="30" fill="#dc2626" rx="1"/>
    <rect x="46" y="56" width="6" height="26" fill="#2563eb" rx="1"/>
    <rect x="56" y="48" width="6" height="34" fill="#dc2626" rx="1"/>
    <rect x="66" y="44" width="6" height="38" fill="#16a34a" rx="1"/>
    <polyline points="19,75 29,65 39,57 49,61 59,53 69,49" fill="none" stroke="#0f172a" stroke-width="1.2" stroke-linejoin="round" stroke-linecap="round"/>
    <circle cx="69" cy="49" r="2.5" fill="#16a34a" stroke="#fff" stroke-width="1"/>
    <rect x="10" y="90" width="68" height="2" rx="1" fill="#cbd5e1"/>
    <rect x="10" y="96" width="50" height="2" rx="1" fill="#cbd5e1"/>
  </g>
  
  <g transform="translate(132 32)">
    <circle r="12" fill="rgba(255,255,255,0.95)"/>
    <text x="0" y="5" text-anchor="middle" font-size="17" font-weight="900" fill="#16a34a" font-family="sans-serif">↑</text>
  </g>
</svg>